<?xml version="1.0" standalone="no"?>
<!DOCTYPE svg PUBLIC "-//W3C//DTD SVG 20010904//EN"
 "http://www.w3.org/TR/2001/REC-SVG-20010904/DTD/svg10.dtd">
<svg version="1.0" xmlns="http://www.w3.org/2000/svg"
 width="1280.000000pt" height="814.000000pt" viewBox="0 0 1280.000000 814.000000"
 preserveAspectRatio="xMidYMid meet">
<metadata>
Created by potrace 1.15, written by Peter Selinger 2001-2017
</metadata>
<g transform="translate(0.000000,814.000000) scale(0.100000,-0.100000)"
fill="#ff7d00" stroke="none">
<path d="M5911 8128 c-57 -19 -137 -101 -162 -166 -32 -82 -32 -208 -1 -277
78 -171 269 -208 411 -80 52 47 61 45 234 -47 73 -38 205 -109 295 -156 169
-89 192 -108 192 -167 0 -22 -3 -25 -24 -19 -34 8 -110 -46 -136 -96 -16 -31
-28 -41 -60 -50 -28 -8 -52 -25 -82 -61 l-43 -50 -235 1 c-129 1 -241 1 -247
1 -7 -1 -20 -15 -29 -33 -32 -63 4 -170 64 -185 18 -4 38 1 63 15 35 20 52 22
213 22 l175 0 23 -41 c40 -72 105 -89 160 -40 63 55 159 91 184 70 9 -7 62
-13 135 -15 124 -4 143 -10 199 -62 8 -7 31 -23 49 -34 l35 -20 -85 -44 c-231
-120 -335 -279 -332 -509 1 -83 7 -121 37 -225 21 -72 33 -126 27 -128 -6 -2
-25 -13 -43 -26 -30 -21 -33 -26 -30 -69 4 -58 -6 -65 -153 -106 -204 -57
-697 -231 -839 -295 -145 -66 -236 -138 -285 -223 -5 -10 -15 -10 -41 -2 -19
6 -138 15 -265 19 -1007 37 -1734 131 -2619 341 -319 75 -468 94 -524 65 -59
-31 -136 -162 -181 -310 -26 -85 -27 -142 -2 -180 24 -36 19 -47 -17 -36 -58
17 -59 19 -65 79 -9 101 -9 101 -147 101 l-120 0 -37 34 c-60 53 -99 69 -149
61 -47 -7 -64 -25 -64 -68 0 -14 -12 -50 -26 -82 -30 -65 -28 -111 6 -157 26
-35 25 -48 -1 -48 -11 0 -29 -10 -39 -22 -15 -20 -21 -21 -44 -10 -14 6 -189
53 -388 103 -200 50 -369 96 -376 101 -6 6 -12 29 -13 52 0 22 -4 50 -8 61 -8
19 -8 19 -19 -2 -7 -12 -19 -52 -27 -90 -9 -37 -18 -78 -20 -90 -11 -48 -23
-20 -19 45 l3 67 -17 -79 c-19 -87 -42 -114 -42 -49 0 21 9 88 20 148 11 61
20 113 20 116 0 3 -46 9 -102 13 -57 4 -130 9 -164 13 l-61 5 -16 -41 c-31
-75 -50 -228 -51 -399 -1 -144 1 -165 16 -176 10 -7 84 -21 165 -31 82 -10
150 -19 152 -21 6 -5 -31 -107 -49 -139 -10 -16 -39 -100 -65 -185 -26 -85
-79 -254 -117 -375 -104 -327 -105 -328 -89 -372 17 -49 122 -286 131 -296 21
-25 41 19 110 243 68 225 74 240 96 240 27 0 32 15 9 24 -8 3 -15 11 -15 18 0
15 106 364 119 393 5 11 12 33 16 49 3 16 14 30 25 33 22 6 26 18 10 28 -18
11 -10 34 13 37 16 2 23 11 25 31 3 23 6 26 18 17 11 -10 13 -35 8 -129 -7
-119 7 -253 28 -278 6 -8 32 -13 64 -13 34 0 65 -7 86 -19 33 -19 203 -53 458
-92 85 -13 214 -22 348 -26 116 -3 212 -9 212 -13 0 -9 12 -4 -186 -83 -258
-102 -455 -230 -658 -427 -125 -121 -200 -210 -286 -338 -70 -105 -175 -318
-218 -443 -198 -568 -95 -1211 276 -1719 79 -108 291 -315 397 -387 689 -467
1709 -422 2385 105 107 84 247 223 330 327 211 266 364 594 396 845 4 30 10
62 15 70 9 17 11 14 29 -56 9 -37 14 -42 47 -47 20 -4 80 2 136 13 55 11 104
17 109 14 15 -9 25 -43 104 -343 95 -361 243 -862 259 -880 18 -18 95 -5 95
16 0 9 -31 140 -69 292 -38 152 -86 348 -105 436 -19 88 -45 194 -56 235 -26
96 -70 273 -70 282 0 4 23 19 51 34 56 28 49 28 137 -14 18 -9 65 -46 103 -82
85 -81 142 -101 232 -82 28 7 124 19 212 28 l159 16 23 -28 22 -28 243 3 c275
2 427 14 577 42 423 81 665 275 878 704 92 185 113 262 84 319 -21 39 -15 50
22 41 18 -5 26 -1 35 20 18 39 15 54 -13 65 -33 12 -33 51 -1 133 13 34 40
109 61 167 20 58 53 148 72 200 19 52 63 176 98 275 122 349 139 395 150 395
11 0 222 123 236 137 4 4 9 78 12 164 4 109 10 168 21 194 21 49 20 79 -3 140
l-19 51 50 82 c46 77 52 82 83 82 38 0 156 23 198 39 15 6 27 9 27 8 0 -1 -26
-56 -58 -122 -32 -66 -72 -149 -87 -185 -16 -36 -32 -67 -35 -70 -3 -3 -6 -12
-8 -20 -2 -8 -25 -73 -52 -145 -27 -71 -58 -161 -69 -200 -35 -118 -110 -463
-127 -585 -8 -63 -20 -130 -26 -149 -8 -26 -7 -35 3 -42 26 -16 136 -10 193
11 109 41 149 83 187 198 35 105 151 394 216 538 62 136 211 414 222 414 4 0
3 -39 -2 -87 -10 -101 -3 -371 12 -423 5 -19 17 -64 25 -100 36 -145 94 -303
163 -438 52 -102 73 -155 73 -181 0 -20 -25 -109 -56 -197 -30 -87 -67 -211
-82 -274 -25 -109 -27 -129 -26 -370 0 -212 4 -277 22 -387 40 -247 96 -428
193 -629 240 -495 637 -827 1144 -954 175 -44 281 -54 525 -47 614 18 892 102
1215 367 85 70 254 243 316 325 225 295 373 650 435 1047 23 142 26 489 6 623
-75 500 -299 931 -642 1233 -350 308 -813 482 -1278 482 -234 -1 -428 -35
-622 -110 -56 -22 -103 -40 -105 -40 -4 0 -328 402 -524 648 -143 180 -143
157 2 235 398 217 878 347 1345 366 148 6 185 10 199 23 76 77 -231 138 -691
138 -340 0 -617 -39 -847 -119 -63 -22 -163 -58 -224 -79 -182 -64 -153 -75
-280 105 -61 86 -112 160 -113 165 -5 10 28 -1 48 -17 8 -7 39 -15 68 -19 41
-5 56 -3 68 9 9 8 27 15 41 15 14 0 42 10 63 21 33 19 43 20 71 10 17 -6 53
-11 80 -11 81 0 114 59 114 207 0 44 -5 77 -12 85 -7 6 -13 25 -13 40 0 35
-33 103 -56 116 -9 5 -25 7 -34 5 -15 -4 -19 4 -25 49 -23 168 -90 341 -161
409 -32 31 -40 34 -109 37 -55 3 -84 0 -109 -12 -19 -9 -49 -19 -66 -22 -29
-6 -31 -5 -25 17 3 13 -1 44 -8 69 -17 54 -86 114 -124 107 -15 -3 -23 1 -23
9 0 14 -134 129 -177 152 -19 11 -31 11 -61 1 -20 -7 -39 -12 -41 -11 -2 1
-18 37 -35 80 -45 110 -86 171 -172 251 l-74 69 0 67 c0 59 -2 66 -15 55 -12
-10 -15 -10 -15 2 0 8 -8 22 -18 31 -17 16 -20 16 -39 -6 -11 -12 -28 -36 -37
-54 l-16 -31 -58 18 c-32 10 -105 24 -161 31 -221 27 -553 -42 -801 -166 -109
-54 -137 -61 -144 -37 -13 39 -70 76 -331 212 -149 78 -292 153 -320 168 -27
14 -51 27 -53 28 -1 0 5 18 14 40 24 56 22 165 -5 234 -23 63 -83 129 -139
156 -45 21 -135 27 -181 12z m2015 -693 c152 -29 166 -41 125 -109 -23 -37
-43 -166 -34 -222 8 -55 20 -74 47 -74 30 0 63 38 95 108 25 52 25 53 65 50
l41 -3 -3 -52 c-4 -72 -10 -85 -62 -125 -54 -40 -146 -159 -161 -208 -6 -19
-15 -38 -18 -43 -4 -4 -40 4 -81 18 -91 31 -274 70 -443 95 -104 16 -131 23
-145 40 -13 16 -31 22 -77 25 -33 2 -77 7 -97 10 -21 4 -60 2 -88 -5 -43 -10
-52 -10 -65 4 -9 9 -24 16 -34 16 -14 0 -20 17 -33 83 l-16 82 52 51 c109 108
357 222 559 259 99 18 279 18 373 0z m468 -289 c27 -46 59 -123 70 -169 6 -26
3 -24 -65 28 -50 39 -80 55 -101 55 -30 0 -30 1 -24 38 3 20 6 50 6 65 0 34
26 46 45 21 14 -18 14 -18 15 5 0 19 3 21 15 11 8 -6 25 -31 39 -54z m-894
-310 c154 -24 298 -55 408 -88 92 -28 104 -35 124 -67 33 -53 33 -54 -3 -46
-109 22 -454 98 -566 125 l-132 32 21 29 c25 34 23 33 148 15z m-3 -122 l78
-17 -40 -12 -40 -11 28 -18 c22 -15 39 -17 80 -13 59 7 170 -6 238 -28 52 -18
144 -73 135 -82 -3 -3 -11 -1 -18 4 -7 6 -30 16 -50 22 -47 16 -73 3 -73 -36
0 -24 -4 -28 -25 -25 -14 1 -30 -4 -36 -12 -8 -12 -30 -1 -131 64 -67 43 -123
74 -125 69 -2 -5 -40 17 -85 49 -63 43 -82 63 -83 80 l0 24 34 -20 c19 -11 69
-28 113 -38z m-106 -150 c25 -28 257 -184 304 -206 17 -7 37 -33 56 -69 31
-62 60 -89 96 -89 13 0 23 -4 23 -10 0 -5 6 -10 14 -10 20 0 25 -21 11 -45 -7
-11 -16 -36 -19 -56 -5 -31 -11 -38 -36 -43 -35 -7 -56 -42 -46 -80 5 -20 17
-28 61 -41 50 -14 55 -18 55 -45 0 -19 9 -35 26 -49 28 -22 26 -24 -16 -22
-19 0 -17 -2 10 -10 69 -20 166 -59 205 -84 58 -35 30 -31 -58 10 -42 19 -129
49 -194 66 -65 17 -128 36 -139 41 -13 6 -78 8 -155 6 l-134 -5 -115 -56
c-156 -75 -155 -75 -166 -35 -10 33 -10 33 -73 33 l-62 0 -29 65 c-33 75 -60
197 -60 269 0 192 110 357 302 450 46 23 90 41 99 41 8 0 26 -12 40 -26z
m1184 -757 c15 -33 25 -71 25 -98 0 -79 -13 -77 -69 10 -28 44 -51 84 -51 90
0 7 48 43 67 50 1 1 14 -23 28 -52z m-499 -103 c17 -14 17 -15 1 -10 -10 3
-23 6 -28 6 -5 0 -9 5 -9 10 0 14 13 12 36 -6z m808 -309 c16 -25 22 -81 9
-88 -5 -2 -20 -7 -34 -10 -25 -6 -27 -5 -33 45 -6 44 -4 55 10 65 24 18 29 17
48 -12z m-354 -473 c49 6 27 -22 -57 -73 -59 -35 -109 -57 -152 -66 -35 -7
-66 -11 -69 -9 -2 3 8 35 24 72 27 63 32 68 88 95 l59 28 42 -25 c23 -13 52
-23 65 -22z m1003 -35 c8 -13 95 -122 194 -243 212 -260 353 -439 353 -447 0
-4 -18 -16 -40 -27 -39 -20 -39 -20 -50 -1 -5 11 -19 23 -30 26 -13 4 -20 15
-20 30 0 15 -10 31 -25 41 -15 10 -25 26 -25 40 0 13 -9 28 -20 34 -11 6 -20
19 -20 30 0 10 -11 27 -25 38 -14 11 -25 29 -25 41 0 11 -11 28 -25 37 -15 10
-25 26 -25 40 0 16 -8 28 -25 36 -16 7 -25 19 -25 34 0 14 -10 30 -25 40 -15
10 -25 26 -25 40 0 17 -8 27 -25 34 -18 7 -25 17 -25 35 0 17 -8 29 -25 37
-16 7 -25 19 -25 34 0 13 -8 29 -18 36 -19 13 -36 58 -22 58 4 0 15 -10 23
-23z m-8040 -157 c26 0 52 9 82 30 l44 30 15 -32 c8 -18 16 -42 18 -53 3 -16
15 -22 59 -30 88 -16 104 -37 72 -94 -21 -37 -23 -37 -149 -10 -74 16 -134 22
-239 22 -171 -1 -279 -18 -518 -84 -98 -27 -187 -49 -198 -49 -10 0 -19 -4
-19 -9 0 -5 -24 -17 -54 -25 -64 -19 -76 -20 -76 -5 0 6 6 9 12 7 7 -3 21 4
32 14 11 10 26 18 33 18 10 0 104 47 131 66 2 1 -2 23 -9 48 -11 46 -11 47 35
116 41 62 49 69 73 65 124 -19 225 -37 263 -46 47 -10 55 -8 300 69 21 7 27 4
39 -20 12 -23 21 -28 54 -28z m-718 3 c-57 -89 -62 -94 -69 -78 -20 54 7 105
57 105 l29 0 -17 -27z m8217 -199 c10 -3 18 -14 18 -25 0 -11 11 -31 24 -44
13 -13 26 -34 29 -47 4 -14 18 -30 32 -36 17 -8 25 -20 25 -37 0 -15 9 -31 25
-41 14 -9 25 -26 25 -39 0 -14 9 -26 25 -33 17 -8 25 -20 25 -37 0 -17 8 -29
25 -37 18 -8 25 -19 25 -40 0 -21 6 -31 25 -38 19 -7 25 -17 25 -39 0 -15 7
-34 14 -41 8 -6 20 -27 26 -46 26 -78 98 -174 131 -174 20 0 7 -24 -44 -83
-97 -115 -202 -269 -270 -398 -24 -45 -47 -82 -52 -83 -12 -2 -105 182 -144
285 -94 246 -132 507 -110 748 7 69 13 153 13 186 1 52 6 66 36 107 35 46 35
46 44 22 6 -13 18 -26 28 -30z m-1271 -211 c9 -25 7 -30 -18 -50 -15 -13 -30
-23 -33 -23 -34 0 -63 -208 -37 -269 13 -30 13 -40 0 -78 -8 -24 -19 -43 -23
-43 -5 0 -21 11 -37 24 -20 16 -47 26 -91 31 l-63 7 3 52 3 51 -42 3 c-24 2
-43 5 -43 8 0 3 10 18 21 33 12 16 29 62 38 103 16 70 18 74 58 94 23 12 59
32 80 44 37 23 88 36 146 39 21 1 30 -5 38 -26z m-261 -8 c-28 -16 -80 -20
-80 -6 0 12 24 18 70 19 l35 1 -25 -14z m3626 -521 c35 -17 53 -65 80 -207 9
-48 20 -84 25 -80 4 4 -1 49 -12 98 -19 90 -25 185 -12 185 4 0 44 -11 90 -25
l84 -26 -21 -28 c-11 -16 -20 -34 -20 -41 0 -6 -7 -25 -15 -43 -15 -29 -15
-30 0 -12 68 85 78 93 120 87 43 -5 165 -67 165 -84 0 -22 -63 -89 -185 -195
-71 -62 -133 -113 -136 -113 -8 0 -39 132 -39 169 -1 24 -1 25 -15 7 -9 -12
-11 -24 -5 -35 15 -27 41 -164 33 -171 -33 -28 -271 -236 -283 -246 -8 -8 -10
-14 -3 -14 6 0 72 54 147 120 75 66 139 120 144 120 7 0 93 -367 92 -397 0
-23 -36 -14 -117 27 -43 22 -109 48 -148 57 -38 9 -81 25 -94 37 l-23 21 6
-135 c4 -74 9 -152 12 -172 3 -22 2 -38 -4 -38 -6 0 -13 59 -17 138 -4 75 -10
157 -14 182 l-6 44 -79 -134 c-44 -74 -86 -142 -94 -150 -16 -16 44 97 90 169
15 25 26 46 24 49 -2 2 -32 -4 -67 -12 -51 -14 -65 -14 -75 -4 -7 7 -42 60
-78 117 -66 104 -75 133 -60 189 4 13 10 22 15 20 32 -12 215 -177 245 -223
29 -44 40 -53 50 -44 18 14 18 36 1 46 -11 7 -222 337 -256 401 -10 19 -10 42
3 120 24 143 46 208 78 226 27 16 114 22 134 8 16 -11 34 -70 34 -113 0 -22 4
-39 9 -39 5 0 9 34 9 76 0 49 4 79 12 84 19 12 142 1 176 -16z m-706 -118 c0
-14 5 -28 10 -31 6 -3 10 -29 10 -58 l0 -52 -42 45 c-76 80 -74 76 -31 99 49
26 53 26 53 -3z m164 -159 c46 -75 48 -81 42 -130 -10 -77 -16 -82 -59 -46
-28 23 -36 36 -32 50 5 16 1 19 -21 19 -15 0 -24 3 -21 7 4 3 -2 20 -12 37
-19 33 -33 153 -24 214 l5 32 37 -52 c20 -29 58 -88 85 -131z m1119 44 c17
-17 16 -19 -19 -57 -20 -21 -43 -49 -52 -62 -14 -21 -14 -25 1 -39 22 -22 45
-10 63 34 29 70 59 89 81 54 10 -15 8 -29 -8 -71 -11 -29 -18 -54 -16 -56 2
-2 19 16 37 41 19 25 39 45 45 45 16 0 112 -112 125 -145 13 -33 1 -69 -68
-218 -28 -59 -47 -107 -41 -107 5 0 29 44 54 98 25 53 58 114 72 135 31 45 37
42 95 -56 34 -56 39 -70 27 -78 -8 -5 -20 -9 -27 -9 -7 0 -10 -4 -7 -10 3 -5
-2 -10 -13 -10 -10 0 -41 -11 -68 -25 -27 -14 -71 -32 -99 -41 -27 -9 -70 -25
-95 -35 -25 -9 -60 -20 -79 -23 -19 -4 -42 -13 -50 -20 -27 -25 -102 -46 -123
-35 -14 8 -18 6 -18 -9 0 -10 -10 -24 -22 -31 -14 -7 -16 -9 -5 -6 10 3 53 6
95 7 72 1 74 2 27 8 l-50 6 35 16 c73 32 211 81 216 75 3 -3 -6 -28 -21 -56
-24 -48 -28 -51 -60 -49 -19 1 -37 -1 -41 -5 -4 -4 9 -7 29 -7 21 0 37 -3 37
-7 0 -22 -165 -363 -174 -360 -12 4 -14 7 -80 147 -24 52 -61 114 -81 138 -31
35 -34 43 -20 48 13 5 14 9 4 15 -16 10 5 39 30 40 10 0 12 2 3 6 -9 4 -7 13
9 39 11 19 18 34 15 34 -2 0 -73 -104 -157 -230 -83 -127 -154 -228 -156 -226
-3 2 39 70 91 150 53 81 95 150 94 154 -2 4 10 20 25 36 16 17 25 36 22 46 -9
27 -95 414 -95 426 0 13 293 274 308 274 5 0 17 9 27 20 20 23 48 19 78 -9z
m-4240 -240 c-55 -155 -58 -162 -81 -156 -15 4 -28 1 -36 -9 -11 -14 -174 -86
-196 -86 -7 0 -7 6 -1 18 9 15 24 49 45 102 3 8 10 22 14 30 5 8 16 31 24 50
9 19 30 64 48 100 l32 66 101 24 c56 14 103 25 105 24 1 0 -24 -74 -55 -163z
m3259 -30 c37 -59 71 -117 75 -127 8 -23 18 -31 -166 122 -6 5 10 114 17 114
4 0 37 -49 74 -109z m-4557 20 c8 -69 -1 -121 -20 -121 -8 0 -16 4 -19 9 -3 5
-22 12 -42 15 -28 6 -39 3 -49 -11 -13 -17 -14 -17 -29 2 -14 19 -16 19 -44 3
-28 -17 -30 -17 -62 7 -42 31 -54 31 -73 1 -9 -13 -29 -28 -46 -34 -26 -9 -31
-8 -36 8 -3 10 -17 25 -30 34 -27 18 -34 63 -12 72 17 6 405 72 434 73 19 1
22 -6 28 -58z m3716 -83 c11 -13 29 -40 40 -62 18 -34 19 -40 6 -53 -10 -10
-22 -13 -38 -7 -34 11 -48 7 -102 -33 -26 -20 -50 -33 -53 -30 -16 16 91 207
117 207 6 0 19 -10 30 -22z m129 -160 c0 -5 -4 -8 -10 -8 -9 0 -40 52 -40 67
1 10 50 -49 50 -59z m-7685 0 c-7 -48 -96 -308 -104 -307 -3 0 -36 36 -73 79
-66 78 -67 79 -56 117 21 79 48 120 87 132 51 15 71 19 114 20 l39 1 -7 -42z
m234 27 c33 -17 37 -26 61 -165 l18 -105 -23 -35 c-15 -24 -60 -58 -143 -108
l-121 -73 -36 39 c-20 22 -45 52 -57 67 l-20 26 42 117 c61 171 91 230 120
241 39 15 128 13 159 -4z m7416 -35 c5 -22 -3 -31 -70 -79 -59 -42 -79 -51
-88 -42 -14 14 15 40 76 68 34 16 37 21 32 47 -6 36 12 63 31 44 7 -7 15 -24
19 -38z m-91 31 c7 -11 -111 -94 -124 -86 -18 11 -11 23 38 59 46 35 76 44 86
27z m-7176 -16 c51 -15 63 -27 41 -41 -6 -3 -9 -14 -6 -24 3 -12 -2 -20 -12
-23 -20 -5 -61 -78 -61 -107 0 -10 -4 -22 -10 -25 -5 -3 -10 -3 -10 2 0 4 -7
45 -15 91 -15 86 -11 142 9 142 7 0 36 -7 64 -15z m7206 -20 c4 -10 -2 -19
-17 -24 -12 -5 -37 -21 -56 -35 -36 -27 -61 -33 -61 -17 0 10 108 91 121 91 4
0 10 -7 13 -15z m168 -93 c74 -113 77 -122 45 -122 -21 0 -32 13 -71 89 -44
85 -55 121 -38 121 4 0 33 -40 64 -88z m2054 50 c19 -15 74 -140 74 -168 0
-21 -87 -29 -244 -22 -88 4 -161 10 -164 13 -3 3 7 31 22 63 l28 58 91 32
c140 47 161 50 193 24z m-2098 -78 c24 -48 42 -87 40 -89 -2 -1 -36 -5 -77 -8
l-73 -6 -45 42 -45 42 74 53 c40 28 75 52 78 52 3 0 25 -39 48 -86z m-8068 66
c0 -5 13 -16 29 -24 15 -8 35 -26 44 -40 15 -23 15 -28 -4 -85 -12 -34 -24
-61 -27 -61 -23 0 -231 165 -221 174 2 2 22 13 44 24 41 22 135 30 135 12z
m7774 -9 c5 -8 -33 -42 -73 -65 -17 -11 -5 31 17 57 16 18 47 23 56 8z m30
-30 c5 -8 -123 -111 -138 -111 -3 0 -6 7 -6 15 0 14 114 105 131 105 4 0 10
-4 13 -9z m31 -39 c0 -14 -111 -92 -130 -92 -26 0 -15 14 48 62 60 45 82 53
82 30z m-8012 -8 c59 -31 217 -148 213 -159 -2 -5 -27 -83 -56 -172 l-53 -163
-35 -6 c-43 -8 -151 3 -168 17 -12 10 -91 241 -111 326 -8 35 -7 47 10 72 10
17 22 31 25 31 16 -1 34 -19 50 -51 13 -25 24 -34 42 -34 35 0 36 27 3 67 -35
40 -36 58 -3 75 33 17 45 16 83 -3z m1282 -30 c13 -8 30 -14 39 -12 8 2 16 -1
18 -7 2 -5 -11 -11 -27 -13 -22 -2 -37 4 -55 23 -26 28 -12 34 25 9z m6790
-14 c16 -16 26 -32 23 -35 -3 -3 -41 -5 -84 -3 l-79 3 45 32 c25 18 50 32 56
33 5 0 23 -13 39 -30z m-7716 -56 c63 -74 71 -96 47 -129 -13 -18 -16 -18 -67
18 -96 67 -92 62 -85 103 10 51 25 86 35 82 4 -2 36 -35 70 -74z m8001 -106
c30 -60 59 -108 64 -108 4 0 1 12 -9 26 -9 14 -30 58 -46 97 -17 40 -33 78
-36 85 -3 8 4 12 23 12 26 0 37 -13 99 -106 39 -59 72 -111 73 -115 2 -5 -29
-9 -69 -9 l-72 0 -76 74 c-42 41 -93 90 -113 108 -21 19 -38 37 -38 41 0 4 33
7 73 5 l72 -3 55 -107z m1993 90 c53 -7 80 -16 86 -27 17 -31 33 -133 27 -166
-6 -30 -13 -36 -84 -64 -79 -33 -133 -60 -119 -61 4 0 24 7 45 16 70 29 173
53 177 40 7 -23 13 -182 8 -208 -4 -21 -21 -35 -89 -69 -93 -48 -106 -63 -23
-25 30 14 67 28 83 32 l29 7 -7 -79 c-11 -125 -11 -125 -60 -120 -22 2 -102
25 -176 50 -143 49 -159 53 -120 31 24 -13 22 -15 -94 -69 -65 -31 -122 -56
-127 -56 -4 0 -43 -15 -86 -34 -104 -46 -112 -34 -68 109 14 44 25 100 25 124
0 47 -3 45 67 26 10 -3 -1 4 -24 15 -24 12 -43 25 -43 31 0 11 56 37 89 42 26
4 40 17 19 17 -20 0 -72 67 -65 83 17 38 164 354 170 364 9 15 231 9 360 -9z
m-2104 -95 c95 -90 110 -108 95 -114 -15 -6 -13 -8 10 -8 20 -1 42 -14 74 -46
25 -25 42 -48 39 -51 -3 -3 -65 14 -139 38 l-133 43 50 6 c50 6 50 6 10 8 -73
5 -308 2 -313 -4 -3 -3 9 -5 26 -5 26 0 477 -144 492 -157 3 -3 -11 -18 -30
-35 -33 -29 -208 -190 -295 -272 -23 -21 -31 -33 -18 -27 12 6 25 16 28 21 9
15 27 12 65 -12 l35 -23 -50 -6 -50 -7 60 0 c98 0 107 -1 103 -16 -5 -21 -426
-446 -442 -446 -7 0 -19 7 -26 15 -8 10 -9 15 -2 15 7 0 5 14 -5 38 -8 20 -17
57 -19 81 -2 38 2 50 29 81 52 59 231 217 252 223 11 2 -16 4 -60 4 -70 0 -73
-1 -28 -6 l52 -6 -99 -87 c-54 -49 -104 -88 -110 -88 -7 0 -24 -9 -38 -21
l-27 -20 -7 23 c-4 13 -13 58 -21 100 -17 89 -19 87 93 89 l65 1 -65 10 c-114
16 -115 17 -118 137 l-3 103 42 -7 c24 -4 112 -38 198 -76 86 -38 160 -69 165
-69 23 0 -17 22 -149 80 -180 79 -244 116 -250 143 -3 12 1 60 8 107 14 96 15
97 117 100 41 1 50 4 35 10 -11 5 -38 9 -60 10 -66 2 -72 9 -62 58 4 24 14 45
22 48 7 3 30 -6 52 -19 92 -58 141 -77 200 -77 66 0 60 11 -22 35 -57 17 -205
104 -205 119 0 6 19 23 43 38 40 26 49 28 157 28 l115 0 114 -107z m-8426
-118 c26 -76 45 -141 42 -143 -8 -8 -149 19 -163 31 -19 15 -68 115 -77 155
-8 40 9 71 68 123 l41 36 22 -32 c11 -17 42 -94 67 -170z m5584 143 c18 -22
31 -44 28 -48 -5 -8 -109 33 -129 50 -8 8 39 39 59 39 6 0 25 -18 42 -41z
m-5091 -30 c67 -47 74 -55 69 -78 -14 -54 -30 -72 -89 -95 -33 -13 -81 -38
-108 -54 -26 -17 -48 -26 -48 -20 0 14 93 299 98 299 2 0 37 -23 78 -52z m178
-42 c51 -59 52 -61 31 -70 -17 -6 -105 51 -105 68 0 22 13 56 20 56 5 0 29
-24 54 -54z m280 46 c2 -4 -9 -27 -25 -51 -32 -48 -35 -62 -18 -93 9 -17 8
-19 -8 -14 -10 3 -42 10 -71 16 -96 18 -95 23 18 95 90 57 96 60 104 47z m479
-79 c5 -3 -2 -12 -17 -20 -18 -10 -25 -20 -22 -31 4 -12 -2 -21 -17 -27 -12
-6 -24 -21 -25 -35 -2 -14 -10 -29 -18 -33 -8 -4 -14 -14 -14 -22 0 -17 -48
-32 -60 -19 -4 5 -10 44 -12 87 -5 71 -4 77 13 72 12 -4 23 2 35 21 17 25 21
26 72 20 30 -4 59 -9 65 -13z m-773 -45 c0 -7 -88 -23 -95 -17 -2 2 3 19 10
37 l14 33 36 -23 c19 -13 35 -26 35 -30z m-878 25 c9 -10 28 -42 43 -72 l27
-54 -44 6 c-24 3 -57 13 -73 21 -17 9 -36 16 -44 16 -15 0 5 36 42 78 25 27
29 27 49 5z m8962 -53 c19 -33 13 -50 -27 -71 -22 -12 -50 8 -73 53 -22 42
-18 48 34 48 43 0 50 -3 66 -30z m-7522 -46 c1 -31 -1 -58 -5 -61 -11 -7 -107
7 -107 15 1 12 56 68 73 75 9 3 17 11 17 17 0 5 4 10 9 10 5 0 11 -25 13 -56z
m524 -45 c3 -6 1 -16 -4 -21 -8 -8 -17 -4 -31 13 -10 13 -17 27 -14 31 5 9 39
-7 49 -23z m-1928 -1 c46 -8 55 -14 69 -44 9 -18 14 -36 12 -39 -9 -9 -263
-33 -291 -28 l-27 5 20 40 c11 22 32 50 47 63 28 24 59 25 170 3z m170 -32
c99 -21 99 -35 0 -43 -61 -5 -64 -4 -76 21 -19 43 -21 42 76 22z m1210 -6 c42
0 43 -26 2 -35 -21 -5 -39 -2 -55 9 -31 21 -33 40 -2 32 12 -3 37 -6 55 -6z
m7507 -50 c8 -16 15 -46 15 -67 0 -34 -9 -47 -95 -134 -78 -80 -101 -97 -130
-101 -20 -2 -40 1 -45 7 -6 7 -28 20 -50 30 -22 10 -39 22 -38 26 8 22 291
269 308 269 11 0 26 -12 35 -30z m-8471 1 c3 -5 -1 -15 -10 -22 -9 -8 -31 -35
-49 -62 -18 -27 -35 -45 -38 -40 -14 25 -38 114 -32 123 8 12 122 13 129 1z
m-151 -38 c38 -88 42 -119 22 -178 -11 -30 -22 -55 -25 -55 -8 0 -133 241
-127 246 3 3 27 9 54 14 26 4 51 8 54 9 3 0 13 -16 22 -36z m-155 -10 c10 -16
47 -81 82 -147 l62 -118 -73 -75 c-69 -70 -131 -113 -161 -113 -19 0 -234 135
-285 179 -37 31 -42 41 -43 77 0 73 46 173 81 174 9 0 19 3 23 8 4 4 69 14
144 23 75 9 140 17 144 17 4 1 15 -10 26 -25z m2010 -95 c-3 -7 -15 -15 -29
-17 -27 -3 -41 -20 -34 -38 3 -9 -8 -13 -36 -13 -43 0 -60 20 -42 49 16 26
149 43 141 19z m6796 -98 c5 -31 10 -36 38 -38 66 -5 38 -12 -50 -12 -50 0
-93 -3 -95 -7 -3 -5 24 -6 59 -5 l64 4 -6 -49 c-4 -26 -10 -51 -13 -56 -9 -9
-183 65 -189 81 -2 8 8 12 30 13 29 0 31 2 16 12 -16 11 -10 19 55 85 l72 73
6 -33 c4 -18 10 -49 13 -68z m1727 -26 c142 -51 169 -68 169 -107 0 -31 -35
-176 -45 -185 -2 -3 -11 1 -20 8 -11 9 -15 9 -15 1 0 -7 -5 -9 -11 -5 -7 4
-10 1 -7 -6 3 -11 32 -33 45 -35 6 -2 -32 -99 -60 -153 -27 -52 -35 -62 -52
-56 -11 3 -40 9 -65 14 -52 10 -108 30 -390 135 -113 42 -224 83 -247 92 -24
8 -43 20 -43 26 0 7 4 7 12 -1 21 -21 42 -13 73 27 30 39 87 75 99 64 3 -4 7
-36 8 -72 l2 -66 5 78 6 79 173 80 c96 44 181 77 189 74 7 -3 11 -2 8 4 -5 8
39 39 57 40 4 0 53 -16 109 -36z m-8963 -1 c-1 -16 2 -38 6 -49 5 -18 2 -22
-25 -28 -17 -3 -49 -6 -71 -6 -36 0 -38 1 -28 20 6 12 22 25 35 30 13 5 31 21
41 35 22 34 45 33 42 -2z m1465 -28 c-2 -21 -8 -42 -14 -46 -17 -10 -1 -29 24
-29 19 0 22 6 23 40 1 24 9 49 20 61 l18 20 12 -23 c6 -13 13 -45 15 -73 l4
-50 -90 -47 c-54 -28 -120 -54 -165 -63 -41 -9 -87 -20 -102 -25 l-28 -9 0 73
c0 41 -3 87 -6 104 -6 29 -4 30 37 40 24 5 87 23 139 40 52 16 100 29 105 27
6 -1 9 -19 8 -40z m-3280 -144 c64 -40 117 -77 117 -81 0 -4 -21 -15 -47 -25
-44 -17 -50 -17 -118 -1 -72 17 -144 49 -157 70 -9 13 -10 92 -2 122 6 21 7
21 48 5 23 -9 95 -49 159 -90z m8951 48 c50 -23 92 -42 93 -43 0 0 -18 -106
-41 -235 l-42 -234 -103 -114 c-57 -62 -123 -127 -147 -143 -41 -29 -45 -30
-85 -18 -26 8 -52 26 -69 48 -62 79 -42 102 138 156 51 15 90 29 88 31 -2 2
-44 -8 -92 -22 -101 -29 -171 -37 -196 -21 -22 13 -23 42 -3 49 13 5 65 79 65
92 0 15 -85 3 -111 -16 l-29 -20 -10 26 c-13 35 -13 41 7 73 36 56 406 432
426 432 11 0 60 -18 111 -41z m163 -45 c-4 -4 -18 -2 -31 4 -23 10 -24 13 -13
48 l11 36 20 -41 c11 -22 17 -44 13 -47z m-8727 61 c0 -15 -55 -55 -74 -55 -6
0 5 16 24 35 37 38 50 43 50 20z m-2 -111 c1 -31 13 -88 25 -125 13 -38 22
-69 19 -69 -2 0 -56 32 -119 72 l-114 71 23 24 c23 22 131 81 153 82 6 1 12
-24 13 -55z m8772 -38 c0 -22 -5 -74 -10 -114 -10 -73 -10 -74 -82 -154 -47
-52 -74 -75 -76 -65 -3 14 7 72 54 328 l17 87 48 -20 c48 -20 49 -22 49 -62z
m-9240 -33 c30 -9 59 -18 64 -21 11 -6 -70 -48 -140 -72 -52 -18 -52 -18 -58
3 -3 12 -6 43 -6 70 l0 47 43 -6 c23 -3 67 -13 97 -21z m4196 15 c4 -6 -4 -19
-19 -30 -15 -11 -27 -26 -27 -34 0 -17 -11 -18 -44 -3 -20 10 -23 15 -15 30
19 37 90 62 105 37z m-3976 -23 c-18 -18 -31 -23 -49 -18 -23 6 -23 6 10 24
50 27 69 24 39 -6z m9083 -3 l27 -28 -41 -40 -42 -39 7 40 c3 22 6 52 6 68 0
34 9 34 43 -1z m-8964 -33 c35 -22 62 -42 59 -44 -4 -5 -157 41 -166 49 -7 8
18 36 32 36 6 0 40 -18 75 -41z m1881 27 c0 -11 -42 -89 -67 -125 -4 -6 -103
91 -103 100 0 6 120 35 158 38 6 0 12 -5 12 -13z m8038 -35 c42 -17 176 -66
297 -111 225 -83 305 -117 305 -129 0 -9 -73 -109 -105 -143 -14 -15 -25 -34
-25 -42 0 -9 -5 -16 -11 -16 -5 0 -7 5 -4 10 3 6 0 10 -9 10 -8 0 -36 11 -63
24 -26 13 -99 41 -161 62 -101 35 -116 43 -135 74 -12 19 -25 40 -30 45 -12
14 -157 237 -157 241 0 9 26 2 98 -25z m-10112 9 l28 -11 -95 -95 c-78 -80
-155 -144 -173 -144 -2 0 -9 20 -15 44 -11 44 0 106 19 106 5 0 15 6 23 14 13
14 165 94 179 96 4 0 19 -5 34 -10z m10095 -133 c98 -152 98 -163 7 -129 -29
11 -98 36 -152 56 -137 51 -130 44 -96 96 29 44 126 123 144 117 5 -2 48 -65
97 -140z m-8166 72 c71 -66 71 -87 0 -111 l-50 -16 -7 36 c-4 21 -7 54 -7 75
-1 25 -6 40 -17 44 -13 5 -13 7 -2 14 20 13 23 12 83 -42z m7306 29 c33 -24
79 -95 79 -120 0 -10 -25 -22 -80 -38 -44 -13 -78 -25 -76 -28 3 -2 36 5 75
17 38 11 76 21 84 21 14 0 50 -62 177 -306 l32 -62 -69 -93 c-38 -52 -89 -123
-113 -159 -23 -36 -48 -69 -54 -75 -6 -5 -19 -22 -28 -36 -18 -28 -82 -45
-104 -27 -7 5 -31 12 -55 16 -24 4 -44 12 -45 17 0 6 -3 17 -7 25 -19 49 -15
190 13 420 5 47 10 110 11 141 2 67 5 72 44 87 l30 12 -33 -6 -34 -6 8 58 c6
50 13 66 53 111 25 29 50 53 54 53 4 0 22 -10 38 -22z m-9033 -24 c70 -20 140
-43 156 -51 28 -15 29 -15 22 -81 -8 -85 -97 -280 -130 -287 -40 -8 -271 -25
-321 -24 -35 1 -57 8 -72 22 -30 27 -29 30 12 50 20 9 39 25 42 34 4 10 11 21
16 24 16 11 0 26 -33 33 -20 3 -42 0 -60 -9 -40 -20 -40 -20 -40 25 0 38 7 48
126 170 70 72 133 130 141 130 8 0 71 -16 141 -36z m9177 -53 l39 -18 -33 -11
c-45 -16 -44 -16 -64 18 -17 29 -17 30 0 29 10 0 36 -8 58 -18z m465 12 c0 -5
-8 -20 -18 -34 -16 -25 -18 -25 -52 -11 l-35 14 45 19 c51 20 60 22 60 12z
m-90 -58 c19 -7 34 -18 32 -24 -1 -6 -26 -44 -55 -84 -64 -87 -71 -97 -60 -97
4 0 35 41 68 90 33 49 67 90 76 90 16 0 318 -104 350 -121 11 -5 17 -14 14
-20 -4 -5 -1 -9 4 -9 6 0 11 5 11 10 0 28 23 -1 87 -112 40 -68 75 -135 79
-151 3 -15 15 -34 26 -42 20 -13 19 -15 -23 -42 -24 -15 -70 -47 -101 -70 -31
-24 -66 -43 -78 -43 -11 0 -23 -7 -26 -15 -7 -17 -108 -65 -138 -65 -12 0 -27
-5 -33 -11 -12 -12 -41 -1 -42 16 0 6 -7 12 -17 13 -15 4 -15 2 0 -19 9 -13
16 -28 16 -35 0 -13 -106 -44 -150 -44 -17 0 -43 -6 -58 -14 -15 -7 -65 -17
-111 -20 -46 -4 -89 -10 -96 -12 -10 -4 -12 13 -9 73 4 89 24 307 29 311 1 2
12 -12 24 -30 26 -42 28 -29 1 14 -27 45 -25 82 7 126 l27 37 -28 -25 -28 -25
7 110 c4 61 9 116 11 124 5 15 74 -89 74 -110 0 -6 -9 -25 -21 -42 l-21 -32
26 30 c16 18 29 26 34 20 5 -6 60 -95 122 -200 122 -205 130 -218 138 -211 2
3 -5 17 -17 32 -11 15 -21 30 -21 35 0 4 -70 124 -155 266 -125 208 -155 265
-155 295 0 34 2 37 33 41 63 8 113 5 147 -8z m-687 -43 c-5 -39 -8 -43 -45
-53 -22 -6 -42 -8 -45 -5 -3 2 16 28 43 56 26 27 48 49 50 47 1 -1 0 -21 -3
-45z m-6983 -11 c16 -31 12 -41 -15 -41 -27 0 -41 20 -31 45 8 21 33 19 46 -4z
m-140 4 c0 -3 -7 -17 -16 -31 -16 -24 -18 -24 -36 -7 -18 16 -18 18 -2 30 18
13 54 18 54 8z m-1509 -62 c13 -33 24 -53 60 -115 l28 -48 -35 -15 c-20 -8
-56 -15 -81 -15 l-44 0 6 33 c3 17 10 63 15 101 6 38 13 73 16 78 10 16 25 8
35 -19z m1349 -8 c0 -18 -7 -26 -24 -31 -14 -3 -30 -3 -35 1 -17 10 -13 43 7
48 41 11 52 7 52 -18z m7276 8 c-2 -10 -14 -133 -26 -273 -12 -140 -26 -263
-31 -272 -5 -10 -9 -25 -9 -34 0 -8 -7 -22 -15 -30 -13 -13 -18 -13 -45 1 -16
8 -30 21 -30 29 0 15 -41 36 -73 36 -20 1 -21 2 -4 14 9 7 17 16 17 20 0 3 -8
6 -17 6 -14 0 -15 2 -4 9 7 5 15 30 17 57 2 27 19 125 37 217 38 189 44 200
123 222 65 18 66 18 60 -2z m-7166 -29 c0 -8 -4 -14 -10 -14 -5 0 -10 9 -10
21 0 11 5 17 10 14 6 -3 10 -13 10 -21z m-243 -74 l21 -71 -32 -13 c-17 -7
-50 -15 -73 -18 -39 -6 -43 -4 -43 15 0 12 -3 32 -6 45 -5 18 -2 24 14 29 17
4 20 11 15 33 -5 26 -2 30 28 39 19 5 39 10 45 10 6 1 20 -31 31 -69z m370 44
c4 -12 -35 -26 -49 -18 -13 8 13 35 30 32 9 -2 17 -8 19 -14z m8362 -49 c69
-25 137 -54 150 -64 24 -18 24 -20 8 -44 -17 -26 -125 -137 -133 -137 -2 0 -4
9 -4 20 0 13 -5 17 -14 14 -9 -3 -17 3 -21 15 -3 11 -33 68 -66 125 -32 58
-59 108 -59 111 0 9 9 6 139 -40z m-1504 -32 c-4 -27 -10 -59 -15 -73 -5 -14
-14 -54 -20 -90 -7 -36 -15 -81 -19 -100 -7 -41 -31 -80 -48 -80 -7 0 -10 -7
-6 -16 9 -24 -6 -16 -75 38 -56 43 -60 49 -59 84 2 34 14 51 117 160 63 67
119 123 123 123 5 1 5 -20 2 -46z m-7076 1 c-13 -16 -69 -19 -69 -5 0 6 10 17
22 25 27 20 67 3 47 -20z m-1458 -21 c-4 -25 -12 -39 -24 -41 -21 -4 -22 10
-2 48 21 41 33 37 26 -7z m1149 -27 c0 -2 3 -12 7 -21 5 -14 2 -16 -18 -10
-31 9 -32 11 -24 24 6 10 35 16 35 7z m-909 -35 c17 -10 37 -28 45 -40 8 -11
21 -21 28 -21 35 0 64 -42 96 -137 l33 -97 -94 -89 c-163 -154 -198 -168 -294
-123 -92 42 -101 84 -65 321 11 72 20 133 20 137 0 17 128 67 172 68 15 0 41
-8 59 -19z m1379 11 c0 -14 -23 -32 -42 -32 -11 0 -18 7 -18 20 0 16 7 20 30
20 17 0 30 -4 30 -8z m-1630 -25 c0 -7 -16 -21 -35 -30 -38 -18 -43 -13 -19
21 16 24 54 30 54 9z m-80 -2 c0 -47 -107 -115 -214 -137 -68 -13 -97 -3 -126
44 -37 61 -33 62 155 82 143 16 185 18 185 11z m70 -70 c0 -47 -31 -240 -46
-293 l-16 -52 -30 17 c-17 10 -43 33 -58 51 -27 33 -27 35 -14 80 8 26 30 80
49 120 27 57 41 76 67 87 45 19 48 19 48 -10z m1337 -1 c24 -9 43 -22 44 -28
1 -6 2 -27 3 -47 2 -19 11 -53 22 -75 16 -34 23 -39 49 -36 l30 2 -34 -18
c-37 -21 -44 -20 -151 23 -58 23 -61 28 -74 121 -6 48 -5 51 21 61 39 15 42
15 90 -3z m7854 -146 c-13 -143 -27 -214 -46 -238 -7 -8 -10 -20 -8 -27 3 -8
-11 -8 -54 2 -32 8 -75 14 -95 15 -21 0 -38 3 -38 8 0 31 236 390 248 377 2
-2 -1 -64 -7 -137z m-7997 115 c2 -10 8 -37 11 -60 8 -50 2 -52 -55 -23 -29
15 -40 27 -40 43 0 29 11 44 35 50 36 9 44 7 49 -10z m-1324 -27 c-15 -40 -58
-119 -78 -144 l-18 -23 -49 45 c-30 29 -45 50 -39 55 18 18 159 91 176 91 14
0 16 -4 8 -24z m606 9 c16 -8 36 -15 45 -15 9 0 21 -12 28 -27 12 -26 10 -30
-24 -61 -20 -19 -40 -30 -45 -26 -4 5 -16 34 -25 64 -10 30 -20 61 -23 68 -6
16 9 15 44 -3z m614 -10 c0 -30 0 -30 -45 -8 -46 22 -44 33 5 33 36 0 40 -2
40 -25z m-70 -22 l62 -27 -7 -90 c-6 -80 -13 -128 -32 -218 -8 -39 -80 -72
-156 -73 -56 0 -59 2 -95 43 -20 23 -70 99 -109 169 l-73 127 18 30 c13 23 26
31 48 32 131 7 220 16 228 24 17 17 52 11 116 -17z m169 -77 c32 -17 38 -35
40 -119 2 -70 -20 -107 -79 -131 -52 -21 -57 -20 -65 4 -6 18 11 238 20 267 5
14 28 7 84 -21z m-609 4 c0 -15 -48 -107 -59 -114 -5 -4 -14 6 -19 21 -8 25
-5 32 26 66 36 37 52 46 52 27z m85 -136 c68 -115 102 -182 107 -209 3 -17 -4
-21 -57 -27 -83 -9 -106 3 -138 74 -49 106 -53 137 -27 188 26 52 39 70 51 70
4 0 33 -43 64 -96z m-176 15 c11 -38 10 -43 -23 -102 -42 -75 -78 -115 -112
-123 -27 -7 -111 13 -120 28 -6 9 222 238 236 238 4 0 12 -18 19 -41z m44
-141 c9 -29 17 -66 19 -83 l3 -30 -60 4 c-33 2 -61 4 -62 5 -2 1 6 25 16 52
46 122 60 131 84 52z"/>
<path d="M7689 5923 c-9 -2 -22 -15 -29 -28 -16 -30 -40 -36 -85 -22 -30 9
-38 8 -52 -6 -16 -16 -11 -17 87 -17 58 0 121 -4 141 -9 l36 -8 -21 38 c-22
39 -49 58 -77 52z"/>
<path d="M7820 5820 c8 -5 20 -10 25 -10 6 0 3 5 -5 10 -8 5 -19 10 -25 10 -5
0 -3 -5 5 -10z"/>
<path d="M10946 3085 c-10 -7 -16 -19 -14 -26 2 -7 11 0 21 15 20 30 19 31 -7
11z"/>
<path d="M11400 2810 c-8 -5 -10 -10 -5 -10 6 0 17 5 25 10 8 5 11 10 5 10 -5
0 -17 -5 -25 -10z"/>
<path d="M11732 2393 c-40 -14 -71 -27 -69 -29 4 -4 147 43 155 51 9 9 -12 4
-86 -22z"/>
<path d="M11669 2229 c30 -10 56 -17 58 -15 5 5 -86 36 -101 35 -6 0 13 -9 43
-20z"/>
<path d="M11760 2195 c14 -8 34 -14 45 -14 14 0 10 4 -14 14 -43 19 -64 19
-31 0z"/>
<path d="M12002 2188 c-23 -11 -41 -23 -38 -25 2 -2 26 7 53 21 58 30 46 34
-15 4z"/>
<path d="M11890 2060 c0 -5 5 -10 11 -10 5 0 7 5 4 10 -3 6 -8 10 -11 10 -2 0
-4 -4 -4 -10z"/>
<path d="M11970 1973 c29 -35 55 -63 57 -63 8 0 -54 74 -83 100 -15 14 -4 -3
26 -37z"/>
<path d="M10135 1460 c-13 -5 -14 -9 -5 -9 8 0 24 4 35 9 13 5 14 9 5 9 -8 0
-24 -4 -35 -9z"/>
<path d="M10065 1440 c-13 -5 -14 -9 -5 -9 8 0 24 4 35 9 13 5 14 9 5 9 -8 0
-24 -4 -35 -9z"/>
<path d="M11501 1114 c0 -11 3 -14 6 -6 3 7 2 16 -1 19 -3 4 -6 -2 -5 -13z"/>
<path d="M10956 1007 c18 -34 41 -84 50 -112 21 -62 23 -67 34 -60 9 5 -92
219 -108 229 -5 3 5 -22 24 -57z"/>
<path d="M441 5152 c-6 -21 -13 -54 -16 -73 -4 -28 -2 -26 8 9 7 24 20 50 30
57 10 7 15 19 11 29 -10 26 -23 18 -33 -22z"/>
</g>
</svg>
